<svg xmlns="http://www.w3.org/2000/svg" viewBox="0 0 235.16 204.67"><defs><style>.a{isolation:isolate;}.b{fill:#b3b3b3;}.c{mix-blend-mode:overlay;}.d{fill:#fff;}</style></defs><title>unreal-engine-mascot</title><g class="a"><path class="b" d="M24,219.06C18.76,176.23,67.38,115.45,135.11,96.34c-24.89,13.89-30.68,43.41-7.53,45.73,0,0,.58,93.77.58,101.3,13.89,13.89,31.26,3.47,37.63-4.05V152.49c1.36-6.33-5.84-13.62-12.16-16.21,12.16-4.05,20.26,5.21,20.26,5.21,5.45-9.94,24.31-28.36,60.78-34.73l-27.21,37.63,1.16,96.09s13.31,13.89,42.26-15.05c-7.53,37.63-56.73,64.25-56.73,64.25l-22-19.1-23.73,26c-35.08-4.44-60.21-12.09-81-36.47,0,0,19.1-3.47,19.1-17.37s1.16-78.14,1.16-78.14C67.38,167,61.59,164.65,24,219.06Z" transform="translate(-19.54 -95.19)"/><g class="c"><path class="d" d="M109.81,111.08a44.8,44.8,0,0,0-1.46,5.14,47.58,47.58,0,0,0-.89,5.23,30.59,30.59,0,0,0-.12,5.2,17.35,17.35,0,0,0,1,4.88,10.59,10.59,0,0,0,6.25,6.43,17.37,17.37,0,0,0,4.69,1.07c.82.09,1.66.12,2.49.13s1.69,0,2.54-.07a2.41,2.41,0,0,1,2.52,2.29v.15l.33,13c.13,4.34.15,8.69.23,13s.17,8.69.17,13l.07,13,0,6.52,0,6.52-.08,13-.24,13c-.05,4.34-.23,8.69-.35,13l-.69-1.75a22.85,22.85,0,0,0,1.72,1.67c.62.56,1.29,1.08,2,1.59a31.46,31.46,0,0,0,4.25,2.73c.74.39,1.5.76,2.28,1.07a21.9,21.9,0,0,0,2.36.84,12.13,12.13,0,0,0,1.21.32c.41.1.81.2,1.22.26a22.47,22.47,0,0,0,2.48.33l1.25,0,1.26,0c.42,0,.84-.08,1.26-.11a9.82,9.82,0,0,0,1.25-.19,21.76,21.76,0,0,0,2.48-.6c.42-.1.81-.27,1.22-.41a11.5,11.5,0,0,0,1.21-.46l1.19-.53c.39-.19.77-.41,1.16-.61.79-.39,1.51-.89,2.27-1.35s1.45-1,2.18-1.53l2.09-1.68,0,0a.55.55,0,0,1,.74.8c-.62.68-1.24,1.37-1.89,2s-1.33,1.3-2.05,1.89a26,26,0,0,1-2.23,1.71c-.39.26-.77.55-1.17.8l-1.23.72a13.37,13.37,0,0,1-1.27.66c-.43.2-.85.44-1.3.61a23.72,23.72,0,0,1-2.74.95,12.13,12.13,0,0,1-1.41.35c-.48.09-1,.22-1.44.27s-1,.13-1.46.18l-1.47.08a24.89,24.89,0,0,1-2.94-.11c-.49,0-1-.11-1.46-.19s-1-.16-1.45-.27a26,26,0,0,1-2.83-.77c-.93-.3-1.84-.66-2.73-1a34.86,34.86,0,0,1-5.12-2.78c-.8-.54-1.6-1.11-2.36-1.72a27.12,27.12,0,0,1-2.29-2,2.32,2.32,0,0,1-.69-1.58v-.17c-.12-4.34-.3-8.69-.35-13l-.24-13-.08-13,0-6.52,0-6.52.07-13c0-4.34.12-8.69.17-13s.1-8.69.23-13l.33-13,2.52,2.44c-1,0-1.93,0-2.89-.09s-1.94-.18-2.92-.35a21.66,21.66,0,0,1-5.76-1.75,14.74,14.74,0,0,1-5-3.77,14.47,14.47,0,0,1-2.8-5.48,24.52,24.52,0,0,1,0-11.45,40.64,40.64,0,0,1,1.52-5.36,46.09,46.09,0,0,1,2.16-5.09.55.55,0,0,1,1,.43Z" transform="translate(-19.54 -95.19)"/></g><g class="c"><path class="d" d="M174.9,142.08s.62-.86,1.8-2.25c.6-.69,1.31-1.55,2.18-2.47s1.84-2,3-3.08a111.12,111.12,0,0,1,17.86-14.37c.88-.57,1.78-1.12,2.67-1.67l2.71-1.56c1.83-1,3.66-1.91,5.48-2.71a56.58,56.58,0,0,1,5.37-2.07,42.48,42.48,0,0,1,5-1.35,32,32,0,0,1,4.38-.61l1.85-.09c.58,0,1.1,0,1.58.07a14.91,14.91,0,0,1,2.18.26l.76.14a.55.55,0,0,1,.05,1.08h-.05l-.72.2c-.46.13-1.14.27-2,.56s-1.84.61-3,1-2.38,1-3.73,1.59-2.79,1.32-4.31,2.1-3.09,1.64-4.72,2.55c-3.25,1.82-6.69,3.88-10.11,6-1.7,1.07-3.42,2.12-5.09,3.2l-4.92,3.16-8.78,5.67-3.55,2.25c-1,.69-2,1.23-2.76,1.72-1.54.95-2.44,1.47-2.44,1.47a.56.56,0,0,1-.73-.81Z" transform="translate(-19.54 -95.19)"/></g><g class="c"><path class="d" d="M204,145.28c.2,2.06.4,4.12.55,6.18s.33,4.12.45,6.18l.39,6.18.31,6.18c.22,4.12.37,8.24.5,12.36s.24,8.24.32,12.36q.25,12.36.19,24.72c0,4.12-.07,8.24-.15,12.36s-.2,8.24-.36,12.36l-1-2.14c.11.1.39.32.62.48l.75.52c.52.33,1.06.66,1.61,1a24.8,24.8,0,0,0,3.46,1.55q.89.34,1.82.6c.61.18,1.24.33,1.87.46s1.27.23,1.9.32,1.29.14,1.93.16,1.3,0,2,0,1.31,0,2-.11,1.31-.16,2-.24,1.31-.23,2-.39a30.72,30.72,0,0,0,3.89-1.13c.65-.21,1.28-.48,1.92-.72l1.9-.82h0a.55.55,0,0,1,.54.95c-.57.42-1.15.85-1.74,1.25s-1.2.79-1.83,1.14a33.07,33.07,0,0,1-3.9,1.91c-.67.3-1.37.5-2.06.75s-1.41.43-2.13.58-1.45.31-2.18.44-1.48.23-2.22.26-1.5.06-2.25.07-1.51,0-2.26-.12-1.5-.16-2.25-.29-1.49-.28-2.23-.47a29.3,29.3,0,0,1-4.32-1.49q-1.06-.46-2.08-1c-.34-.19-.68-.38-1-.59s-.64-.4-1.08-.73a2.51,2.51,0,0,1-1-1.91v-.23q-.24-6.18-.36-12.36c-.08-4.12-.14-8.24-.15-12.36q0-12.36.19-24.72c.08-4.12.18-8.24.32-12.36s.29-8.24.5-12.36l.31-6.18.39-6.18c.12-2.06.29-4.12.45-6.18s.35-4.12.55-6.18a.55.55,0,0,1,1.09,0Z" transform="translate(-19.54 -95.19)"/></g><g class="c"><path d="M30.33,202.34q2.29-4,4.9-7.67c1.72-2.5,3.56-4.92,5.46-7.3s3.9-4.69,6-6.92S50.94,176,53.27,174a80,80,0,0,1,7.33-5.77,49.47,49.47,0,0,1,8.29-4.68,34.54,34.54,0,0,1,9.47-2.74,24.82,24.82,0,0,1,10.21.8,3.16,3.16,0,0,1,2.17,2.29v0c1,4.09,1.74,8.19,2.39,12.29s1.09,8.22,1.48,12.33.7,8.24.83,12.37.2,8.26.15,12.4c0,2.07-.12,4.14-.22,6.2s-.25,4.13-.43,6.2a115.57,115.57,0,0,1-1.71,12.35,60.79,60.79,0,0,1-3.53,12.08,27.07,27.07,0,0,1-3.17,5.57,11.29,11.29,0,0,1-5.14,4,.55.55,0,0,1-.43-1h0a10.34,10.34,0,0,0,3.87-4.09,24.87,24.87,0,0,0,2.2-5.41,47.48,47.48,0,0,0,1.34-5.79c.33-2,.59-3.94.82-5.93.44-4,.59-8,.72-12q.08-3,.05-6c0-2-.08-4-.12-6-.09-4-.3-8.07-.59-12.1s-.6-8.05-1-12.07q-.32-3-.71-6l-.84-6c-.59-4-1.28-7.93-2.17-11.79l2.18,2.33c-4.86-1.51-10.35-.8-15.52,1.28a40.83,40.83,0,0,0-3.84,1.76c-1.26.66-2.51,1.35-3.74,2.1a74.69,74.69,0,0,0-7.16,5c-2.29,1.82-4.57,3.69-6.76,5.68s-4.32,4.06-6.43,6.16-4.13,4.3-6.15,6.51l-3,3.36c-1,1.13-2,2.27-2.9,3.43h0a.55.55,0,0,1-.9-.62Z" transform="translate(-19.54 -95.19)"/></g><g class="c"><path d="M71.53,258.81c1.19,1.21,2.46,2.37,3.75,3.49s2.6,2.23,3.94,3.29,2.7,2.1,4.07,3.11,2.77,2,4.18,2.94,2.85,1.86,4.3,2.74,2.92,1.74,4.4,2.55,3,1.62,4.5,2.35,3.05,1.45,4.59,2.14,3.1,1.33,4.68,1.91,3.16,1.15,4.75,1.7,3.2,1,4.83,1.41,3.25.81,4.88,1.17,3.28.66,4.92.93,3.3.5,5,.64,3.32.28,5,.36,3.33.05,5,.09l-2.23.92c4.92-5,10-9.69,15.23-14.29,1.3-1.15,2.6-2.3,3.93-3.42l4-3.34,4-3.29L173.3,263a3.16,3.16,0,0,1,4.16.2h0c3.59,3.46,7.08,7,10.62,10.52l5.29,5.27,5.24,5.33-3.1-.42c.89-.46,1.83-1,2.73-1.47l2.74-1.54q2.72-1.58,5.41-3.2c1.79-1.09,3.57-2.21,5.32-3.36s3.47-2.35,5.18-3.56a99.48,99.48,0,0,0,9.77-7.85c.75-.72,1.51-1.43,2.23-2.19s1.42-1.52,2.09-2.31,1.31-1.61,1.91-2.45l.86-1.3.78-1.34,0,0a.55.55,0,0,1,1,.48l-.62,1.52-.73,1.47c-.52,1-1.07,1.9-1.68,2.8s-1.24,1.79-1.92,2.64-1.37,1.68-2.07,2.51-1.44,1.62-2.21,2.38-1.53,1.53-2.3,2.28c-1.56,1.49-3.18,2.92-4.82,4.32-3.3,2.77-6.74,5.36-10.26,7.84q-2.63,1.87-5.35,3.6l-2.73,1.72c-.92.57-1.83,1.12-2.8,1.68a2.55,2.55,0,0,1-3-.32l-.11-.1-5.52-5L184,278c-3.63-3.41-7.32-6.76-10.9-10.22l4.17.21-4,3.23-3.94,3.29-7.79,6.68q-3.88,3.35-7.66,6.81c-1.25,1.15-2.51,2.31-3.74,3.49s-2.44,2.37-3.67,3.54l-.16.15a2.82,2.82,0,0,1-2.07.78c-1.78-.09-3.57-.08-5.35-.25s-3.56-.28-5.32-.54-3.52-.53-5.28-.83-3.49-.71-5.21-1.14-3.44-.92-5.12-1.48-3.36-1.15-5-1.74-3.3-1.29-4.91-2-3.21-1.48-4.79-2.26-3.12-1.65-4.64-2.54-3-1.8-4.51-2.75-2.93-1.94-4.35-3-2.81-2.1-4.18-3.19-2.71-2.22-4-3.37-2.58-2.36-3.83-3.58-2.46-2.47-3.63-3.77-2.3-2.62-3.37-4a.55.55,0,0,1,.82-.72Z" transform="translate(-19.54 -95.19)"/></g><g class="c"><path d="M158.82,139l.28-.12a5,5,0,0,1,.88-.33,5.9,5.9,0,0,1,1.62-.26,5,5,0,0,1,2.28.46,9,9,0,0,1,4,4.38,29.49,29.49,0,0,1,2.25,6.82A73.44,73.44,0,0,1,171.4,158c.29,2.89.44,5.93.53,9.07s.08,6.37,0,9.65-.17,6.6-.35,9.91-.37,6.62-.59,9.87-.5,6.44-.79,9.52c-.57,6.17-1.18,11.91-1.79,16.83-.29,2.46-.54,4.71-.81,6.71s-.47,3.74-.66,5.18c-.37,2.88-.63,4.53-.63,4.53a.55.55,0,0,1-1.09,0s-.27-1.66-.54-4.56c-.15-1.45-.29-3.22-.4-5.25s-.22-4.32-.28-6.81c-.15-5-.09-10.8.1-17,.1-3.1.25-6.3.41-9.55l.57-9.82.59-9.79c.19-3.22.36-6.39.49-9.45s.22-6,.23-8.79,0-5.4-.24-7.78a31.78,31.78,0,0,0-1.06-6.27,7.06,7.06,0,0,0-2.23-3.7,4,4,0,0,0-2.61-.69,5,5,0,0,0-.84.1l-.3.05a.55.55,0,0,1-.31-1Z" transform="translate(-19.54 -95.19)"/></g><path d="M19.8,219.4l-.18-2.76-.08-1.39v-1.54l0-3.07.24-2.94.12-1.47.21-1.45.44-2.9c.17-1,.4-1.9.6-2.86s.38-1.91.66-2.83c.53-1.86,1-3.74,1.65-5.55l.92-2.73,1.05-2.68c.67-1.8,1.48-3.53,2.27-5.27s1.69-3.42,2.54-5.12,1.86-3.32,2.78-5,2-3.22,3-4.83,2.13-3.13,3.19-4.69l3.37-4.55,3.54-4.41,3.7-4.27L53.71,143c1.31-1.35,2.65-2.66,4-4,2.71-2.6,5.47-5.14,8.33-7.56,1.4-1.25,2.89-2.38,4.34-3.57s2.95-2.31,4.44-3.43L77,122.77l2.3-1.61C80.87,120.08,82.4,119,84,118c3.11-2.07,6.33-4,9.56-5.85l4.9-2.7,5-2.52c3.37-1.6,6.75-3.18,10.21-4.57l2.58-1.06,2.62-1c1.75-.65,3.48-1.32,5.26-1.87s3.52-1.2,5.32-1.7l5.37-1.53a1.16,1.16,0,0,1,.89,2.12h0c-.95.93-1.92,1.77-2.83,2.68s-1.79,1.82-2.67,2.7-1.69,1.84-2.48,2.79-1.56,1.9-2.28,2.87c-.36.49-.73,1-1.07,1.47s-.66,1-1,1.49c-.63,1-1.24,2-1.81,3.06s-1.07,2.07-1.53,3.12c-.25.52-.44,1.05-.64,1.58s-.39,1.05-.56,1.59a15.66,15.66,0,0,0-.45,1.59c-.15.53-.24,1.06-.35,1.58a20.26,20.26,0,0,0-.34,3.08,17.71,17.71,0,0,0,.15,2.88,12.92,12.92,0,0,0,.64,2.62,10.5,10.5,0,0,0,1.23,2.38c.14.18.25.4.4.58l.48.55a12.25,12.25,0,0,0,1.07,1.09c.39.36.84.67,1.27,1l1.45,1c.52.28,1.05.61,1.6.93s1.14.59,1.73.92h0a1.17,1.17,0,0,1,1,1.11v0l4.12,101.31L131.49,240h0c.5.55,1,1.15,1.5,1.65a20.58,20.58,0,0,0,1.63,1.49l.87.66.91.6a16.32,16.32,0,0,0,1.91,1,9.11,9.11,0,0,0,1,.42,8.59,8.59,0,0,0,1,.36,9.58,9.58,0,0,0,1.07.29,10.6,10.6,0,0,0,1.1.22,16.58,16.58,0,0,0,2.27.23,18.86,18.86,0,0,0,2.33,0,24.13,24.13,0,0,0,4.74-.87,30,30,0,0,0,4.66-1.77,31.35,31.35,0,0,0,8.37-5.74h0l-.27.75q-.33-5.43-.57-10.85l-.44-10.85-.34-10.85L163,195.91c-.19-7.24-.23-14.47-.34-21.71l-.06-10.85,0-10.85.07-.68c0-.26.08-.5.1-.77a7.57,7.57,0,0,0,0-.83,5.35,5.35,0,0,0-.15-.9,7.22,7.22,0,0,0-.28-.94,6.72,6.72,0,0,0-.39-1,10.14,10.14,0,0,0-.49-1,10.82,10.82,0,0,0-.58-1c-.21-.33-.4-.66-.65-1s-.44-.66-.71-1-.49-.64-.77-.94c-.53-.62-1.09-1.23-1.67-1.83l-.89-.89c-.31-.28-.63-.55-.94-.85l-1-.82c-.33-.27-.68-.52-1-.81h0l-.1,0a1.13,1.13,0,0,1,.17-2.13l1.41-.39a10.12,10.12,0,0,1,1.42-.33l1.45-.22a12.16,12.16,0,0,1,1.46-.1,11,11,0,0,1,1.47,0l1.47.1c.49.06,1,.16,1.45.23a10.59,10.59,0,0,1,1.43.33,12.6,12.6,0,0,1,1.4.43c.45.18.92.32,1.36.52l1.32.62,1.27.71a24.87,24.87,0,0,1,2.39,1.65c.38.3.76.61,1.12.94s.7.65,1.08,1.06h0l-1.89.21q.44-1.09.94-2.18l1.13-2.07c.39-.69.85-1.32,1.27-2a19.83,19.83,0,0,1,1.38-1.9c.48-.61,1-1.24,1.45-1.84l1.57-1.73c1-1.17,2.19-2.21,3.31-3.3s2.37-2,3.57-3,2.49-1.85,3.78-2.72,2.62-1.67,3.94-2.46l4.07-2.23c1.38-.7,2.77-1.36,4.18-2s2.85-1.18,4.27-1.77c.72-.28,1.42-.59,2.15-.84l2.19-.72c1.47-.46,2.9-1,4.4-1.36s3-.76,4.45-1.14,3-.61,4.5-.88l2.25-.41,2.27-.27q2.27-.27,4.54-.48h0a1.12,1.12,0,0,1,1.23,1.68l-.09.14-25.06,39.17h0l.72-2.27-1.48,96.12h0l-.32-.79a8.72,8.72,0,0,0,1.05.71c.38.24.82.41,1.22.62l1.3.47,1.34.32a9.31,9.31,0,0,0,1.37.19,7.67,7.67,0,0,0,1.38.09,15.34,15.34,0,0,0,2.78-.18l1.38-.2c.46-.1.91-.24,1.37-.36L224,241c.45-.12.89-.34,1.33-.51l1.32-.53a8.46,8.46,0,0,0,1.3-.59L230.5,238c.84-.45,1.63-1,2.44-1.56l1.21-.8.6-.4.57-.46,2.29-1.81,1.14-.9c.38-.31.73-.66,1.09-1l2.16-2c.72-.66,1.45-1.31,2.12-2l4.07-4.28h0l.36-.31a3.7,3.7,0,0,1,6,3.73c-.51,1.9-1,3.82-1.64,5.65s-1.38,3.65-2.12,5.44-1.65,3.5-2.6,5.17c-.45.85-.92,1.68-1.44,2.49s-1,1.64-1.52,2.43l-1.6,2.37c-.54.78-1.12,1.53-1.68,2.3s-1.14,1.51-1.74,2.24-1.17,1.49-1.79,2.19l-1.85,2.14-1.91,2.07c-1.28,1.38-2.6,2.71-3.94,4s-2.71,2.58-4.1,3.82-2.8,2.47-4.24,3.64-2.89,2.34-4.36,3.48-3,2.24-4.47,3.33q-4.52,3.24-9.23,6.19Q202,286.6,199.59,288c-1.61.93-3.21,1.83-4.88,2.69h0l-1.31-.14a9.3,9.3,0,0,1-2.15-.3,12.67,12.67,0,0,1-1.86-.64,13.42,13.42,0,0,1-3.13-1.95c-1.83-1.59-3.63-3.22-5.36-4.94s-3.4-3.49-5-5.34c-.8-.93-1.58-1.88-2.33-2.87-.38-.48-.74-1-1.11-1.5s-.71-1-1.05-1.56h0l1.61-.09L150.8,298.8h0l-.12.12a3.06,3.06,0,0,1-2.67.9l-5.68-.9c-1.89-.3-3.78-.67-5.67-1s-3.78-.75-5.66-1.11-3.76-.83-5.64-1.26-3.75-.93-5.61-1.43-3.72-1.06-5.56-1.64-3.68-1.22-5.5-1.87-3.62-1.4-5.41-2.13-3.54-1.61-5.3-2.41c-.88-.4-1.74-.85-2.59-1.33l-2.56-1.39c-1.7-.93-3.31-2-5-3s-3.18-2.23-4.76-3.34-3-2.42-4.53-3.64l-4.27-3.92-4-4.16-3.77-4.37h0a1.14,1.14,0,0,1,.68-1.88h0c1.91-.94,3.86-1.94,5.63-3a34.16,34.16,0,0,0,4.91-3.5,16.91,16.91,0,0,0,3.5-4.08,13.29,13.29,0,0,0,1-2.22,12.76,12.76,0,0,0,.47-2.35c0-.2,0-.41,0-.61l0-.71,0-1.66.06-3.32.14-6.63c.09-4.42.23-8.84.39-13.26l.22-6.63c.06-2.21.19-4.42.28-6.63l.3-6.63c.09-2.21.24-4.42.36-6.63l.39-6.63.46-6.63c.14-2.21.34-4.42.52-6.63s.39-4.42.61-6.63h0l1.29,1.17-5.42.78c-.9.13-1.8.26-2.67.43s-1.78.28-2.62.51-1.72.38-2.55.64L72,169,69.69,170c-.78.35-1.5.85-2.24,1.26-.37.22-.75.41-1.1.67l-1,.77c-.69.53-1.42,1-2.07,1.57-1.3,1.19-2.67,2.25-3.87,3.57s-2.49,2.5-3.64,3.88-2.37,2.65-3.47,4.09-2.25,2.8-3.34,4.22l-3.22,4.35c-1.09,1.43-2.11,2.93-3.15,4.41l-3.12,4.44-6.06,9-5.94,9.14a4.14,4.14,0,0,1-7.6-2Zm8-12.4,6.06-7.81,3.47-4.29c1.16-1.43,2.3-2.87,3.52-4.26l3.6-4.21c1.23-1.38,2.5-2.74,3.74-4.11s2.59-2.68,3.9-4,2.72-2.58,4.12-3.83,3-2.38,4.43-3.54c.75-.58,1.61-1,2.4-1.57l1.21-.77c.41-.25.86-.44,1.29-.67.88-.41,1.71-.9,2.62-1.24l2.72-1,2.79-.71c.93-.21,1.87-.33,2.8-.5s1.86-.22,2.78-.34,1.84-.18,2.76-.25l5.46-.41,1.29,1.17h0c.16,2.21.3,4.42.41,6.64s.24,4.42.32,6.63l.27,6.63L90,191.2c.06,2.21.14,4.42.16,6.63l.11,6.63c0,2.21.09,4.42.08,6.63l0,6.63c0,4.42,0,8.84,0,13.26l-.06,6.63,0,3.32,0,1.66V243l0,.52c0,.35,0,.69-.07,1a16.15,16.15,0,0,1-3,7.79,19.5,19.5,0,0,1-5.82,5.25,27.27,27.27,0,0,1-10.22,3.46,22.1,22.1,0,0,1-3.55.21h0l.67-1.89,3.87,4.09,4.09,3.86,4.3,3.6L85,274.27c1.58,1,3.12,2,4.72,3s3.22,1.87,4.9,2.69l2.51,1.22c.83.42,1.67.81,2.54,1.16,1.73.7,3.41,1.5,5.18,2.08s3.49,1.3,5.29,1.81,3.56,1.12,5.37,1.56,3.61,1,5.44,1.34,3.65.83,5.5,1.14,3.68.71,5.54,1,3.7.61,5.57.84,3.73.51,5.6.72l5.62.63-2.79,1h0L171.3,269.8l.1-.09a1.09,1.09,0,0,1,1.52,0h0c.58.26,1.15.53,1.7.82s1.11.57,1.64.89c1.08.61,2.13,1.25,3.16,1.91,2.07,1.32,4.06,2.73,6,4.21s3.8,3,5.64,4.61a13.42,13.42,0,0,1,2.37,2.83,12.66,12.66,0,0,1,.89,1.75,9.3,9.3,0,0,1,.6,2.09l-1.31-.14h0c1.53-.91,3.08-1.91,4.59-2.9s3-2,4.5-3.09q4.45-3.16,8.68-6.6c1.41-1.15,2.8-2.31,4.17-3.5s2.72-2.4,4-3.64,2.62-2.5,3.9-3.77,2.52-2.58,3.73-3.92,2.4-2.68,3.54-4.06l1.7-2.08,1.63-2.13c.55-.7,1-1.45,1.57-2.17s1-1.45,1.5-2.2,1-1.48,1.44-2.24l1.35-2.28c.45-.76.84-1.55,1.26-2.32s.82-1.56,1.18-2.35c.78-1.57,1.42-3.19,2.07-4.8s1.18-3.26,1.59-4.92.78-3.33,1.14-5l6.37,3.41h0l-4.8,4.07c-.78.7-1.64,1.31-2.49,1.94L243.72,236c-.43.31-.84.63-1.28.93l-1.35.85-2.69,1.69-.67.42-.71.37-1.42.74c-1,.47-1.87,1-2.87,1.42l-3,1.2a10.54,10.54,0,0,1-1.54.51l-1.57.44c-.53.13-1,.32-1.57.41l-1.62.26c-.54.08-1.07.19-1.62.24l-1.65.06a18.72,18.72,0,0,1-3.3-.15,10.11,10.11,0,0,1-1.64-.29,11.88,11.88,0,0,1-1.61-.41c-.53-.19-1.05-.36-1.57-.57l-1.5-.74a12.69,12.69,0,0,1-2.75-2.09l0,0a1,1,0,0,1-.28-.74h0l-3.8-96.06a3.46,3.46,0,0,1,.6-2.1l.12-.17h0l29.34-36.07,1.14,1.82h0q-2.14.68-4.29,1.29l-2.14.61-2.11.7-4.22,1.37c-1.39.51-2.76,1-4.15,1.52s-2.73,1.08-4.09,1.62-2.71,1.1-4,1.73-2.68,1.17-4,1.86l-3.89,2-3.79,2.16-3.68,2.32-3.59,2.44-3.49,2.58c-1.1.93-2.3,1.76-3.37,2.72s-2.19,1.88-3.23,2.89c-.54.48-1.05,1-1.55,1.51s-1,1-1.52,1.55l-1.46,1.61q-.67.84-1.39,1.67l-.3.35a1,1,0,0,1-1.38.1,1,1,0,0,1-.21-.25h0c-.25-.27-.58-.59-.89-.87s-.65-.57-1-.84a22.58,22.58,0,0,0-2.15-1.48l-1.14-.63-1.18-.55c-.39-.18-.81-.31-1.21-.47a10.65,10.65,0,0,0-1.24-.38,8.8,8.8,0,0,0-1.26-.29c-.43-.07-.85-.16-1.28-.21l-1.29-.09a9.15,9.15,0,0,0-1.29,0,10.2,10.2,0,0,0-1.29.09l-1.28.2a8.49,8.49,0,0,0-1.26.3l-1.26.34.07-2.17h0c.48.09,1,.2,1.44.32l1.4.46c.46.17.91.38,1.36.57l1.32.67a23.34,23.34,0,0,1,2.5,1.62c.41.29.78.63,1.17.95s.75.68,1.11,1,.7.75,1,1.13a13.92,13.92,0,0,1,1,1.24,11.55,11.55,0,0,1,.88,1.35A12.37,12.37,0,0,1,168,146a10.43,10.43,0,0,1,.6,1.61,11.65,11.65,0,0,1,.39,1.75,12.26,12.26,0,0,1,.11,1.86,17.89,17.89,0,0,1-.21,1.91l.07-.68,0,10.85-.06,10.85c-.11,7.24-.15,14.47-.34,21.71l-.26,10.85L168,217.61l-.44,10.85q-.24,5.43-.57,10.85v.15a.93.93,0,0,1-.27.6h0a35.61,35.61,0,0,1-13,10.66,29.6,29.6,0,0,1-5.53,2,25,25,0,0,1-3,.56,23.1,23.1,0,0,1-3.07.21c-.52,0-1,0-1.56,0a15.57,15.57,0,0,1-1.56-.15,14.48,14.48,0,0,1-1.56-.25,15.41,15.41,0,0,1-1.55-.36,24.15,24.15,0,0,1-3-1c-.48-.21-1-.42-1.46-.64l-1.41-.73a29.22,29.22,0,0,1-2.66-1.69c-.88-.59-1.65-1.27-2.47-1.92h0l-.1-.1a4.41,4.41,0,0,1-1.27-3.22l3-101.29,1,1.14h0c-.7.16-1.42.28-2.15.37s-1.47.06-2.22.06-1.5-.15-2.27-.25-1.52-.37-2.28-.62a15,15,0,0,1-4.33-2.44,15.17,15.17,0,0,1-1.87-1.79,19.57,19.57,0,0,1-1.54-2.11,16.42,16.42,0,0,1-1.15-2.33c-.15-.4-.33-.8-.46-1.21l-.32-1.23a17.86,17.86,0,0,1-.43-2.47c-.07-.82-.09-1.64-.1-2.45a26.32,26.32,0,0,1,.57-4.7,19.5,19.5,0,0,1,.57-2.23c.22-.73.45-1.46.74-2.15a20.76,20.76,0,0,1,.87-2.07c.32-.67.64-1.34,1-2a32.85,32.85,0,0,1,2.33-3.71,40,40,0,0,1,2.7-3.37c1-1.06,2-2.06,3-3,.51-.49,1.08-.92,1.62-1.37a20.8,20.8,0,0,1,1.67-1.28c1.12-.84,2.32-1.57,3.51-2.28a37.79,37.79,0,0,1,3.72-1.85,32.18,32.18,0,0,1,3.86-1.43h0l.88,2.13-5.23,1.69c-1.75.55-3.45,1.24-5.17,1.85s-3.42,1.32-5.11,2l-2.54,1-2.5,1.13c-3.35,1.48-6.61,3.14-9.86,4.82l-4.81,2.64-4.71,2.81c-3.1,1.94-6.17,3.91-9.14,6-1.51,1-3,2.12-4.42,3.22l-2.19,1.64-2.13,1.71c-1.42,1.14-2.85,2.27-4.21,3.49s-2.78,2.35-4.1,3.61c-2.7,2.45-5.29,5-7.82,7.6-1.24,1.33-2.5,2.64-3.71,4l-3.57,4.11-3.42,4.23-3.25,4.34-3.08,4.46c-1,1.53-1.95,3-2.89,4.57s-1.83,3.1-2.68,4.68-1.71,3.16-2.46,4.78-1.57,3.22-2.22,4.88-1.39,3.29-1.95,5l-.89,2.51-.76,2.54c-.55,1.68-.9,3.41-1.33,5.12-.23.85-.35,1.72-.51,2.58s-.32,1.72-.45,2.58l-.3,2.59Z" transform="translate(-19.54 -95.19)"/></g></svg>