<?xml version="1.0" encoding="UTF-8"?>
<!DOCTYPE svg PUBLIC "-//W3C//DTD SVG 1.1//EN" "http://www.w3.org/Graphics/SVG/1.1/DTD/svg11.dtd">
<svg version="1.1" xmlns="http://www.w3.org/2000/svg" xmlns:xlink="http://www.w3.org/1999/xlink" width="40" height="40"  xml:space="preserve" id="canvas1">
    <!-- Generated by PaintCode - http://www.paintcodeapp.com -->
    <path id="canvas1-twitterLogo2" stroke="none" fill="rgb(255, 255, 255)" fill-opacity="1" d="M 24.58,10 C 22.03,10 19.96,12.19 19.96,14.89 19.96,15.28 20,15.65 20.08,16.01 16.25,15.8 12.84,13.86 10.57,10.9 10.17,11.62 9.94,12.46 9.94,13.35 9.94,15.05 10.76,16.55 12,17.43 11.24,17.4 10.53,17.18 9.9,16.81 L 9.9,16.88 C 9.9,19.25 11.5,21.22 13.61,21.67 13.22,21.79 12.81,21.84 12.39,21.84 12.09,21.84 11.8,21.81 11.52,21.76 12.11,23.7 13.82,25.12 15.84,25.15 14.26,26.47 12.26,27.25 10.1,27.25 9.73,27.25 9.36,27.23 9,27.18 11.04,28.57 13.47,29.38 16.08,29.38 24.57,29.38 29.21,21.92 29.21,15.46 29.21,15.25 29.21,15.04 29.2,14.83 30.1,14.14 30.89,13.28 31.51,12.29 30.68,12.68 29.79,12.95 28.85,13.06 29.81,12.46 30.54,11.5 30.88,10.36 29.99,10.92 29,11.33 27.95,11.54 27.11,10.59 25.91,10 24.58,10 Z M 34.14,5.86 C 41.95,13.67 41.95,26.33 34.14,34.14 26.33,41.95 13.67,41.95 5.86,34.14 -1.95,26.33 -1.95,13.67 5.86,5.86 13.67,-1.95 26.33,-1.95 34.14,5.86 Z M 34.14,5.86" />
</svg>
