<?xml version="1.0" encoding="UTF-8"?>
<!DOCTYPE svg PUBLIC "-//W3C//DTD SVG 1.1//EN" "http://www.w3.org/Graphics/SVG/1.1/DTD/svg11.dtd">
<svg version="1.1" xmlns="http://www.w3.org/2000/svg" xmlns:xlink="http://www.w3.org/1999/xlink" width="40" height="40"  xml:space="preserve" id="canvas1">
    <!-- Generated by PaintCode - http://www.paintcodeapp.com -->
    <path id="canvas1-facebookLogo2" stroke="none" fill="rgb(255, 255, 255)" fill-opacity="1" d="M 5.65,-11.65 L 2.49,-11.65 C -1.3,-11.65 -2.64,-9.75 -2.64,-6.57 L -2.64,-4.23 -5,-4.23 -5,-0.32 -2.64,-0.32 -2.64,11 2.09,11 2.09,-0.32 5.25,-0.32 5.67,-4.23 2.09,-4.23 2.1,-6.18 C 2.1,-7.2 2.2,-7.74 3.67,-7.74 L 5.65,-7.74 5.65,-11.65 Z M 14.14,-14.14 C 21.95,-6.33 21.95,6.33 14.14,14.14 6.33,21.95 -6.33,21.95 -14.14,14.14 -21.95,6.33 -21.95,-6.33 -14.14,-14.14 -6.33,-21.95 6.33,-21.95 14.14,-14.14 Z M 14.14,-14.14" transform="translate(20, 20)"  />
</svg>
